<svg id="Layer_1" data-name="Layer 1" xmlns="http://www.w3.org/2000/svg" viewBox="0 0 544.57 288.57"><defs><style>.cls-1{fill:#2491eb;}</style></defs><title>logo-blue</title><polygon class="cls-1" points="121.5 121.09 109.14 154.73 96.2 121.09 86.24 121.09 104.54 166.88 113.08 166.84 131.55 121.09 121.5 121.09"/><path class="cls-1" d="M214.71,133.84V121.07l-9.43,0v45.57l9.45,0C214.7,155.71,214.71,144.59,214.71,133.84Z"/><path class="cls-1" d="M149.77,133.84V121.07l-9.44,0v45.57l9.46,0C149.76,155.71,149.77,144.59,149.77,133.84Z"/><polygon class="cls-1" points="312.22 157.61 289.42 157.61 289.42 121.05 280.41 121.05 280.41 166.62 289.42 166.62 289.42 166.62 312.22 166.62 312.22 157.61"/><polygon class="cls-1" points="400.79 121.23 389.26 160.21 376.28 121.27 370.32 121.27 357.55 160.16 345.58 121.45 338.82 121.41 354.09 166.75 360.5 166.76 373.47 130.64 385.99 166.77 392.35 166.71 407.58 121.23 400.79 121.23"/><path class="cls-1" d="M500.07,144l-2-1.43,1.67-1.84c2.37-2.61,3.48-5.47,3.19-8.26a11.56,11.56,0,0,0-11.11-11c-4.21-.15-8.5-.12-12.65-.09-2.79,0-5.48,0-8.17,0v45.28q1.73,0,3.48,0c1.62,0,3.24,0,4.83,0h.13c4.8,0,9.77.1,14.66-.3,6.38-.49,11.62-5.93,11.45-11.86v-.19C506,148.81,501.87,145.27,500.07,144Zm-24-18,5.7,0c2.68,0,5.42,0,8.26,0a6.54,6.54,0,0,1,4.63,1.77,8.21,8.21,0,0,1,2.78,5.48,7.72,7.72,0,0,1-6.54,7.65c-1.7.13-3.52.19-5.77.19-1.19,0-2.35,0-3.45,0l-3.43,0h-2.18Zm23.82,28.43a8.18,8.18,0,0,1-7.91,7.32c-1.87.05-3.76.06-5.64.06H476.07v-16.4l2.22,0c1,0,2,0,3.08,0h1.13c3.43,0,6.95-.08,10.31.13a7.86,7.86,0,0,1,5.29,2.91A8.06,8.06,0,0,1,499.89,154.41Z"/><path class="cls-1" d="M194.71,147.29h0a10.61,10.61,0,0,0-4.3-4.2,25.6,25.6,0,0,0-5.57-2.27,55.39,55.39,0,0,0-6.72-1.33,28.5,28.5,0,0,1-7.83-2,4,4,0,0,1-2.49-3.83,5.14,5.14,0,0,1,2.63-4.51,13.2,13.2,0,0,1,7.11-1.72,16.1,16.1,0,0,1,6.23,1.31,10.09,10.09,0,0,1,4.32,3.41l.24.35,6.06-4.06-.23-.36c-3.17-5.06-8.82-7.63-16.79-7.63a25.27,25.27,0,0,0-6.15.74,21.47,21.47,0,0,0-5.52,2.21,11.37,11.37,0,0,0-5.76,10.14,11.71,11.71,0,0,0,1,5,10.94,10.94,0,0,0,2.56,3.58,13.16,13.16,0,0,0,4,2.34,32.19,32.19,0,0,0,4.62,1.47c1.45.33,3.21.63,5.23.89A24.14,24.14,0,0,1,185.5,149a4.86,4.86,0,0,1,2.76,4.55,5.39,5.39,0,0,1-1.6,4,8.62,8.62,0,0,1-3.92,2.24,20.43,20.43,0,0,1-5.18.62c-6.19,0-10.55-2.3-13.35-7L164,153l-6,4,.19.35c3.67,6.79,10.18,10.23,19.32,10.23a28.88,28.88,0,0,0,9-1.31,15.27,15.27,0,0,0,6.86-4.56,12,12,0,0,0,2.85-8.16A12.73,12.73,0,0,0,194.71,147.29Z"/><rect class="cls-1" x="422.47" y="122.6" width="31.34" height="4.89"/><polygon class="cls-1" points="452.05 146.13 452.05 141.88 422.49 141.88 422.49 166.69 455.69 166.69 455.69 161.51 426.74 161.51 426.74 146.13 452.05 146.13"/><polygon class="cls-1" points="262.35 166.62 271.73 166.62 252.02 121.04 243.44 121.04 224.14 166.6 233.07 166.64 247.62 130.86 262.35 166.62"/><polygon class="cls-1" points="280.41 23.96 44.05 23.96 39.53 23.96 35.02 23.96 35.02 255.58 35.02 264.62 44.05 264.62 280.41 264.62 289.45 264.62 289.45 255.58 289.44 178.13 280.41 178.13 280.41 255.58 44.05 255.58 44.05 32.99 280.41 32.99 280.41 109.32 289.45 109.32 289.45 32.99 289.45 23.96 280.41 23.96"/></svg>